<?xml version="1.0" encoding="UTF-8"?>
<svg id="Layer_2" xmlns="http://www.w3.org/2000/svg" viewBox="0 0 381.21 91.48">
  <defs>
    <style>
      .cls-1 {
        fill: #52bd8c;
      }

      .cls-2 {
        fill: #18afac;
      }

      .cls-3 {
        fill: #034757;
      }

      .cls-4 {
        fill: #c8da30;
      }
    </style>
  </defs>
  <g id="Layer_1-2" data-name="Layer_1">
    <g>
      <g>
        <path class="cls-3" d="M55.02,80.11c-9.68,0-19.43-5.17-19.43-18.29h13.45c0,4.1,2.62,6.15,5.99,6.15,3.53,0,5.99-2.05,5.99-6.23,0-3.53-2.62-6.15-6.23-6.15h-1.89v-11.64h1.89c4.02,0,5.58-2.87,5.58-5.49,0-3.69-2.54-5.58-5.33-5.58s-5.33,1.97-5.33,5.49h-13.45c0-10.99,8.36-17.63,18.78-17.63s18.78,7.22,18.78,17.3c0,6.4-3.12,9.51-6.07,11.4,3.2,2.21,6.72,5.74,6.72,12.71,0,12.22-9.18,17.96-19.43,17.96Z"/>
        <path class="cls-3" d="M113.41,66.67c-2.54,2.62-6.31,4.02-10.58,4.02s-7.38-1.23-9.84-3.69v17.47h-13.45V26.08h13.04v3.61c2.71-2.71,5.58-4.1,10.17-4.1,4.26,0,8.12,1.39,10.66,4.02,4.1,4.26,4.18,10.91,4.18,18.53s-.08,14.27-4.18,18.53ZM98.57,37.72c-5,0-5.58,4.02-5.58,10.41s.57,10.41,5.58,10.41,5.58-4.02,5.58-10.41-.57-10.41-5.58-10.41Z"/>
        <path class="cls-3" d="M173.51,70.19v-25.83c0-5.82-3.69-7.79-7.05-7.79s-7.13,1.97-7.13,7.54v26.08h-10.66v-25.83c0-5.82-3.69-7.79-7.05-7.79s-7.13,1.97-7.13,7.79v25.83h-10.66V27.47h10.41v3.94c2.79-2.87,6.72-4.43,10.66-4.43,4.76,0,8.61,1.72,11.32,5.41,3.61-3.77,7.46-5.41,12.79-5.41,4.26,0,8.12,1.39,10.5,3.77,3.44,3.44,4.67,7.46,4.67,12.14v27.31h-10.66Z"/>
        <path class="cls-3" d="M200.74,52.15c0,5.58,3.28,9.51,9.35,9.51,4.67,0,6.97-1.39,9.68-4.02l6.48,6.31c-4.35,4.43-8.53,6.72-16.24,6.72-10.09,0-19.76-4.59-19.76-21.89,0-13.94,7.54-21.81,18.61-21.81,11.89,0,18.62,8.53,18.62,20.66v4.51h-26.73ZM215.99,40.26c-1.15-2.54-3.53-4.43-7.13-4.43s-5.99,1.89-7.13,4.43c-.74,1.56-.9,2.71-.98,4.59h16.24c-.08-1.89-.25-3.03-.98-4.59Z"/>
        <path class="cls-3" d="M247.39,70.19c-8.69,0-12.38-6.15-12.38-12.22v-21.16h-4.51v-8.12h4.51v-12.63h10.66v12.63h7.54v8.12h-7.54v20.5c0,2.46,1.15,3.85,3.69,3.85h3.85v9.02h-5.82Z"/>
        <path class="cls-3" d="M282.82,39.11c-1.64-1.64-3.03-2.54-5.66-2.54-3.28,0-6.89,2.46-6.89,7.87v25.75h-10.66V27.47h10.42v4.1c2.05-2.46,6.15-4.59,10.74-4.59,4.18,0,7.13,1.07,10.09,4.02l-8.04,8.12Z"/>
        <path class="cls-3" d="M291.84,20.17v-8.69h10.91v8.69h-10.91ZM292,70.19V28.7h10.66v41.49h-10.66Z"/>
        <path class="cls-3" d="M328.24,70.68c-8.53,0-19.11-4.59-19.11-21.89s10.58-21.81,19.11-21.81c5.9,0,10.33,1.8,14.1,5.74l-7.22,7.22c-2.21-2.38-4.1-3.36-6.89-3.36-2.54,0-4.51.9-6.07,2.79-1.64,2.05-2.38,4.92-2.38,9.43s.74,7.46,2.38,9.51c1.56,1.89,3.53,2.79,6.07,2.79,2.79,0,4.67-.98,6.89-3.36l7.22,7.13c-3.77,3.94-8.2,5.82-14.1,5.82Z"/>
        <path class="cls-3" d="M360.14,70.68c-6.72,0-12.71-.74-18.2-6.15l6.97-6.97c3.44,3.53,8.12,4.02,11.4,4.02,3.69,0,7.54-1.23,7.54-4.43,0-2.13-1.07-3.61-4.51-3.94l-6.89-.66c-7.54-.74-12.3-4.1-12.3-11.97,0-8.94,7.79-13.61,16.48-13.61,6.72,0,12.22,1.23,16.32,5l-6.56,6.64c-2.46-2.21-6.15-2.87-9.92-2.87-4.26,0-6.07,1.97-6.07,4.1s1.23,3.36,4.43,3.69l6.72.66c8.45.82,12.71,5.25,12.71,12.55,0,9.43-8.04,13.94-18.12,13.94Z"/>
      </g>
      <g>
        <path class="cls-2" d="M16.17,91.48c-1.21-.02-2.4-.59-3.16-1.65-3.1-4.27-5.7-8.89-7.73-13.75-.85-2.04.11-4.38,2.15-5.23,2.04-.85,4.38.11,5.23,2.15,1.79,4.28,4.08,8.37,6.82,12.13,1.3,1.79.9,4.29-.89,5.59-.73.53-1.58.78-2.43.76Z"/>
        <path class="cls-1" d="M.37,56.72C.08,53.88-.04,51.04.01,48.26c.05-2.42.23-4.87.53-7.26.28-2.19,2.28-3.74,4.47-3.46,2.19.28,3.74,2.28,3.46,4.47-.27,2.12-.43,4.28-.47,6.41-.05,2.46.06,4.96.31,7.43v.11c.22,2.2-1.39,4.15-3.58,4.37-.16.02-.31.02-.47.02-2-.04-3.7-1.59-3.9-3.63"/>
        <path class="cls-4" d="M9.51,27.42c-.52-.01-1.05-.12-1.55-.35-2.02-.9-2.92-3.27-2.02-5.28,2.15-4.8,4.86-9.36,8.05-13.56,1.34-1.76,3.85-2.1,5.61-.76,1.76,1.34,2.1,3.85.76,5.61-2.82,3.7-5.21,7.73-7.11,11.98-.68,1.51-2.17,2.4-3.73,2.37Z"/>
      </g>
    </g>
  </g>
</svg>